HIERARCHY
ROOT Hips
{
	OFFSET -0.001795 -0.223333 0.028219
	CHANNELS 6 Xposition Yposition Zposition Zrotation Yrotation Xrotation 
	JOINT LeftUpLeg
	{
		OFFSET 0.069520 -0.091406 -0.006815
		CHANNELS 3 Zrotation Yrotation Xrotation
		JOINT LeftLeg
		{
			OFFSET 0.034277 -0.375199 -0.004496
			CHANNELS 3 Zrotation Yrotation Xrotation
			JOINT LeftFoot
			{
				OFFSET -0.013596 -0.397961 -0.043693
				CHANNELS 3 Zrotation Yrotation Xrotation
				JOINT LeftToe
				{
					OFFSET 0.026358 -0.055791 0.119288
					CHANNELS 3 Zrotation Yrotation Xrotation
					End Site
					{
						OFFSET 0.000000 0.000000 0.000000
					}
				}
			}
		}
	}
	JOINT RightUpLeg
	{
		OFFSET -0.067670 -0.090522 -0.004320
		CHANNELS 3 Zrotation Yrotation Xrotation
		JOINT RightLeg
		{
			OFFSET -0.038290 -0.382569 -0.008850
			CHANNELS 3 Zrotation Yrotation Xrotation
			JOINT RightFoot
			{
				OFFSET 0.015774 -0.398415 -0.042312
				CHANNELS 3 Zrotation Yrotation Xrotation
				JOINT RightToe
				{
					OFFSET -0.025372 -0.048144 0.123348
					CHANNELS 3 Zrotation Yrotation Xrotation
					End Site
					{
						OFFSET 0.000000 0.000000 0.000000
					}
				}
			}
		}
	}
	JOINT Spine
	{
		OFFSET -0.002533 0.108963 -0.026696
		CHANNELS 3 Zrotation Yrotation Xrotation
		JOINT Spine1
		{
			OFFSET 0.005487 0.135180 0.001092
			CHANNELS 3 Zrotation Yrotation Xrotation
			JOINT Spine2
			{
				OFFSET 0.001457 0.052922 0.025425
				CHANNELS 3 Zrotation Yrotation Xrotation
				JOINT Neck
				{
					OFFSET -0.002778 0.213870 -0.042857
					CHANNELS 3 Zrotation Yrotation Xrotation
					JOINT Head
					{
						OFFSET 0.005152 0.064970 0.051349
						CHANNELS 3 Zrotation Yrotation Xrotation
						End Site
						{
							OFFSET 0.000000 0.000000 0.000000
						}
					}
				}
				JOINT LeftShoulder
				{
					OFFSET 0.078845 0.121749 -0.034090
					CHANNELS 3 Zrotation Yrotation Xrotation
					JOINT LeftArm
					{
						OFFSET 0.090977 0.030469 -0.008868
						CHANNELS 3 Zrotation Yrotation Xrotation
						JOINT LeftForeArm
						{
							OFFSET 0.259612 -0.012772 -0.027456
							CHANNELS 3 Zrotation Yrotation Xrotation
							JOINT LeftHand
							{
								OFFSET 0.249234 0.008986 -0.001171
								CHANNELS 3 Zrotation Yrotation Xrotation
								End Site
								{
									OFFSET 0.000000 0.000000 0.000000
								}
							}
						}
					}
				}
				JOINT RightShoulder
				{
					OFFSET -0.081759 0.118833 -0.038615
					CHANNELS 3 Zrotation Yrotation Xrotation
					JOINT RightArm
					{
						OFFSET -0.096012 0.032551 -0.009143
						CHANNELS 3 Zrotation Yrotation Xrotation
						JOINT RightForeArm
						{
							OFFSET -0.253742 -0.013329 -0.021401
							CHANNELS 3 Zrotation Yrotation Xrotation
							JOINT RightHand
							{
								OFFSET -0.255298 0.007772 -0.005559
								CHANNELS 3 Zrotation Yrotation Xrotation
								End Site
								{
									OFFSET 0.000000 0.000000 0.000000
								}
							}
						}
					}
				}
			}
		}
	}
}
MOTION
Frames: 15
Frame Time: 0.050000
0.000000 0.936810 0.000000 -3.453832 11.352452 -5.408482 2.524574 0.413420 10.991881 -4.904418 0.349266 -4.684190 8.945229 18.159302 6.010084 0.000000 0.000000 0.000000 -5.145308 0.563313 -15.604148 1.197172 -0.074102 14.079003 -5.371705 -13.689776 15.849798 0.000000 0.000000 0.000000 2.990453 -0.310224 4.816643 3.047026 -1.905462 3.794111 -6.545415 0.651943 5.581057 13.412792 -8.089579 -10.150631 0.000000 0.000000 0.000000 -22.080891 -12.025084 2.121070 -47.330024 0.650081 -5.195391 -5.568972 -41.196628 2.793536 0.000000 0.000000 0.000000 19.089317 4.906591 2.981590 55.042955 8.248656 -2.102608 2.276765 46.488839 3.941047 0.000000 0.000000 0.000000 
-0.005131 0.935399 0.020439 -3.385672 9.840760 -4.543598 2.000528 0.574893 12.467084 -3.351409 0.295607 -6.435272 9.671292 19.416283 6.727885 0.000000 0.000000 0.000000 -4.058784 0.845963 -17.193423 -0.983231 0.476254 11.099940 -7.123243 -16.748065 23.495636 0.000000 0.000000 0.000000 3.871063 -0.240250 3.408209 2.979305 -1.857135 3.897901 -7.577703 0.063882 6.061377 14.699939 -8.390311 -12.561347 0.000000 0.000000 0.000000 -20.315814 -13.368586 3.369207 -48.488758 -2.749535 -4.230570 -1.133830 -43.816884 1.339838 0.000000 0.000000 0.000000 19.218824 4.479640 2.461367 54.799982 7.764609 -2.285799 0.775290 47.209396 3.237884 0.000000 0.000000 0.000000 
-0.012029 0.932857 0.042937 -2.885955 9.231151 -4.561777 2.143821 0.618709 13.523617 -3.398043 0.310794 -5.467819 10.065639 20.018166 6.531078 0.000000 0.000000 0.000000 -3.282898 0.927677 -15.685023 -2.123061 0.663328 8.841796 -9.614531 -20.244534 27.590870 0.000000 0.000000 0.000000 4.423924 -0.221598 2.998890 3.496712 -2.068388 3.387189 -8.463146 -1.005024 7.217283 11.842734 -6.074207 -14.557775 0.000000 0.000000 0.000000 -20.094703 -14.203168 4.260936 -49.165075 -6.912033 -2.855111 2.278934 -44.357909 0.178749 0.000000 0.000000 0.000000 19.161714 3.001594 1.353040 55.357243 7.328226 -2.548358 2.086737 50.462501 4.053999 0.000000 0.000000 0.000000 
-0.020963 0.931463 0.066131 -2.667187 9.613120 -5.040981 2.477115 0.607608 15.123362 -2.683450 0.279786 -4.841902 9.934406 19.800134 6.752167 0.000000 0.000000 0.000000 -3.071796 0.910396 -14.937483 -1.635691 0.601134 10.154911 -14.516286 -26.237533 30.582177 0.000000 0.000000 0.000000 4.741284 -0.158100 2.238068 3.814648 -2.444897 5.045892 -8.353333 -3.082639 6.946422 11.390129 -5.986105 -14.367412 0.000000 0.000000 0.000000 -20.806455 -16.036662 5.891846 -48.116206 -10.984804 -1.312572 8.720103 -46.923050 -2.298506 0.000000 0.000000 0.000000 18.734681 4.065230 1.402901 54.044726 7.895176 -2.138605 -1.012532 51.275669 2.265423 0.000000 0.000000 0.000000 
-0.031484 0.932277 0.088554 -2.642145 9.931268 -4.745348 3.302383 0.461408 15.081958 -2.342899 0.249189 -3.091357 9.760159 19.617275 7.710483 0.000000 0.000000 0.000000 -2.458826 0.950978 -14.143679 -1.171394 0.505559 10.560465 -15.322055 -27.499988 28.997656 0.000000 0.000000 0.000000 4.971290 -0.163938 2.190793 4.620345 -2.854332 4.696812 -8.531325 -4.834623 6.870418 10.568165 -5.759742 -13.545005 0.000000 0.000000 0.000000 -21.663970 -17.524060 7.294057 -46.461445 -17.440420 1.066652 16.173810 -48.324901 -5.463943 0.000000 0.000000 0.000000 19.633319 5.014741 1.497225 51.884564 8.275615 -1.867099 -5.030872 52.878280 0.078755 0.000000 0.000000 0.000000 
-0.042908 0.934874 0.109107 -2.830962 9.707890 -4.302711 3.865060 0.377272 15.040926 -1.287531 0.161189 -1.903452 9.730202 19.784292 9.748512 0.000000 0.000000 0.000000 -1.502266 1.060308 -13.723807 -0.681478 0.408138 11.013776 -15.545836 -28.114315 27.552706 0.000000 0.000000 0.000000 5.349270 -0.152394 1.872496 5.600299 -3.366937 4.514543 -8.435636 -5.853900 7.187720 9.822102 -5.248563 -14.232141 0.000000 0.000000 0.000000 -21.349185 -20.210381 9.231471 -45.210928 -24.567272 3.589307 26.256694 -45.547261 -9.179053 0.000000 0.000000 0.000000 18.877909 6.919906 2.250863 49.955817 10.313592 -0.951032 -11.357228 52.876989 -3.208314 0.000000 0.000000 0.000000 
-0.054641 0.937676 0.127869 -2.593806 9.497772 -3.377396 4.562326 0.258916 13.970689 -1.965817 0.178219 -0.016872 10.621259 21.227619 11.967119 0.000000 0.000000 0.000000 -1.057634 1.140168 -13.965155 -0.300672 0.335097 11.606392 -15.453643 -28.261622 26.420968 0.000000 0.000000 0.000000 5.533777 -0.148056 1.605283 6.252594 -3.703123 4.406498 -8.672199 -7.128763 6.714912 9.965961 -5.326185 -14.762740 0.000000 0.000000 0.000000 -20.153369 -22.692421 10.929136 -43.077010 -30.772197 5.595783 33.958947 -41.830618 -11.190747 0.000000 0.000000 0.000000 18.206423 8.827643 2.912050 48.119475 13.562338 0.475714 -16.963268 51.473827 -6.046009 0.000000 0.000000 0.000000 
-0.066224 0.940913 0.144595 -2.461676 8.603313 -2.309083 5.168114 0.184049 12.752319 -2.725009 0.228333 1.488317 12.156183 23.386515 15.260224 0.000000 0.000000 0.000000 -0.059636 1.287279 -14.043753 -0.418969 0.373905 11.229150 -15.257581 -28.341995 25.358059 0.000000 0.000000 0.000000 6.244494 -0.170918 1.468119 6.389067 -3.709989 4.141056 -8.726318 -8.141925 6.356079 9.898755 -5.157182 -16.029339 0.000000 0.000000 0.000000 -19.363401 -24.959183 12.541207 -39.491896 -36.706150 6.964931 38.096078 -36.043302 -10.740775 0.000000 0.000000 0.000000 16.946123 11.558960 3.976153 45.312663 17.342576 1.913426 -21.581284 49.362866 -8.143108 0.000000 0.000000 0.000000 
-0.077407 0.943672 0.159805 -2.074727 8.193180 -1.292854 5.431168 0.137513 11.419857 -3.733533 0.321843 2.931838 14.422993 26.111560 18.538899 0.000000 0.000000 0.000000 0.309974 1.331337 -13.972213 -0.515669 0.385665 10.398789 -15.085982 -28.168007 25.367662 0.000000 0.000000 0.000000 6.407934 -0.189799 1.419713 6.543364 -3.729405 3.816142 -8.963297 -8.512962 6.472096 10.333013 -5.258476 -17.212888 0.000000 0.000000 0.000000 -17.289266 -27.570565 13.729713 -36.465276 -41.814681 7.934160 41.503136 -30.089017 -9.733623 0.000000 0.000000 0.000000 15.702301 13.951417 5.065120 41.965028 21.637369 3.160847 -24.777595 46.842166 -9.118997 0.000000 0.000000 0.000000 
-0.088032 0.945917 0.173781 -1.864126 7.470230 -0.412182 5.745143 0.091307 9.980195 -4.561358 0.418842 4.645092 16.792004 28.553886 22.117440 0.000000 0.000000 0.000000 1.187135 1.416153 -13.704282 -0.776657 0.416315 9.043593 -15.680576 -28.970504 25.842798 0.000000 0.000000 0.000000 7.053262 -0.269947 1.853216 6.467893 -3.640157 3.643842 -9.171133 -9.140549 5.870699 10.660308 -5.451472 -17.435141 0.000000 0.000000 0.000000 -15.963694 -29.047239 14.472254 -33.457751 -46.045473 8.421051 43.522326 -24.905922 -8.320740 0.000000 0.000000 0.000000 13.662052 16.033790 5.823016 39.074771 26.132392 4.332455 -27.231741 44.441759 -9.748442 0.000000 0.000000 0.000000 
-0.097598 0.947377 0.186589 -1.565539 6.873722 0.349850 5.962593 0.050291 8.509918 -5.496401 0.553366 5.900571 18.830573 30.452191 24.562570 0.000000 0.000000 0.000000 1.613973 1.454525 -13.575718 -0.685980 0.380643 8.195390 -16.108707 -29.575674 26.059484 0.000000 0.000000 0.000000 7.458472 -0.377366 2.581053 6.191453 -3.467926 3.616773 -8.791968 -9.237432 5.121625 10.789613 -5.517144 -17.440716 0.000000 0.000000 0.000000 -14.473883 -30.837676 15.157850 -30.189587 -49.142507 8.276707 44.203401 -20.780926 -6.949083 0.000000 0.000000 0.000000 12.238751 17.929692 6.574027 35.851389 30.129492 5.027042 -29.126504 42.105520 -9.961498 0.000000 0.000000 0.000000 
-0.105527 0.948475 0.197944 -1.374170 5.916707 1.456483 6.105441 0.016157 6.997270 -6.200279 0.683066 7.115329 18.899348 30.546357 24.587816 0.000000 0.000000 0.000000 2.359746 1.566152 -13.855437 -0.927973 0.427431 7.936132 -15.676742 -29.509188 24.259010 0.000000 0.000000 0.000000 8.227922 -0.448065 2.695670 5.939857 -3.373730 4.186959 -8.999826 -9.129587 4.287554 10.892511 -5.568666 -17.272502 0.000000 0.000000 0.000000 -13.527447 -32.368893 15.798757 -26.891798 -50.733124 7.520285 43.584953 -16.364025 -5.247859 0.000000 0.000000 0.000000 11.095385 19.642151 7.246879 32.542484 33.648650 5.333739 -30.262248 40.143302 -9.882603 0.000000 0.000000 0.000000 
-0.111888 0.949436 0.207713 -1.151878 4.962448 2.397788 6.140285 -0.005153 5.796080 -6.738683 0.799522 7.822566 18.110463 29.946466 23.021129 0.000000 0.000000 0.000000 2.749531 1.699745 -14.662294 -0.833570 0.440151 8.524252 -15.624990 -29.739730 23.369628 0.000000 0.000000 0.000000 8.679610 -0.577399 3.431992 5.651002 -3.214972 4.437737 -8.604516 -8.818406 3.842742 10.889530 -5.642809 -16.801868 0.000000 0.000000 0.000000 -13.117364 -33.413853 16.306441 -24.006733 -51.778281 6.658143 42.944630 -14.146820 -4.385361 0.000000 0.000000 0.000000 10.395121 21.374822 7.957189 29.240974 36.323237 5.186471 -31.208088 39.114332 -9.940505 0.000000 0.000000 0.000000 
-0.116915 0.950266 0.216028 -0.926810 3.940881 3.231286 6.142021 -0.024692 4.710328 -7.198945 0.915359 8.426482 16.808029 28.747958 21.120232 0.000000 0.000000 0.000000 3.015078 1.805412 -15.281128 -0.724732 0.456950 9.222078 -15.008610 -29.382372 21.536671 0.000000 0.000000 0.000000 9.036747 -0.672365 3.905764 5.318369 -3.092965 5.268717 -8.170410 -8.892647 3.019134 10.625431 -5.530789 -16.534955 0.000000 0.000000 0.000000 -12.639554 -33.800543 16.538788 -22.314725 -52.339970 6.161386 42.416525 -12.406074 -3.688905 0.000000 0.000000 0.000000 9.383620 22.645473 8.329612 26.821829 38.526066 5.039964 -32.309647 38.582730 -10.264026 0.000000 0.000000 0.000000 
-0.121000 0.950372 0.222952 -0.756706 3.362864 3.627508 6.089153 -0.039157 3.927917 -7.696609 1.035216 9.060003 16.388181 28.429791 19.796142 0.000000 0.000000 0.000000 3.214291 1.912705 -15.965840 -0.734788 0.517670 10.569293 -14.725272 -29.239856 20.542243 0.000000 0.000000 0.000000 9.212519 -0.797169 4.766408 5.341301 -3.108461 5.496371 -7.879405 -8.906797 2.502867 10.405167 -5.557570 -15.557982 0.000000 0.000000 0.000000 -13.244087 -34.029225 16.959355 -21.193101 -52.002029 5.645796 41.430436 -12.154477 -3.498419 0.000000 0.000000 0.000000 9.175677 23.608996 8.681693 24.876245 39.562749 4.709140 -32.848699 39.772477 -10.865556 0.000000 0.000000 0.000000 
